<svg width="352" height="494" viewBox="0 0 352 494" fill="none" xmlns="http://www.w3.org/2000/svg">
<path d="M318.513 2.99654C328.37 0.0394466 335.763 -0.945561 338.227 1.02584C340.691 2.99735 334.285 12.3613 329.849 22.2182C325.414 32.0754 315.063 72.9819 294.856 115.86C274.649 158.737 207.622 176.48 186.923 181.902C166.223 187.323 168.686 192.251 159.815 205.558C152.718 216.204 154.23 237.922 155.873 247.451C160.473 243.179 176.375 231.876 203.186 220.836C236.7 207.037 263.314 210.487 290.914 217.879C323.31 226.557 353.867 263.182 351.042 319.9C347.845 384.08 316.651 422.695 263.011 461.386C232.947 483.072 173.483 497.286 124.691 493.343C75.8991 489.4 33.9902 458.604 17.3816 417.484C5.42174 387.873 12.9038 344.827 36.4715 319.9C60.0391 294.973 105.963 271.107 133.694 259.279C135.008 256.157 137.637 245.775 137.637 229.215C137.637 208.516 126.794 194.223 119.894 184.366C112.994 174.509 89.8302 172.045 64.6951 159.231C39.5598 146.417 26.2535 112.902 19.8465 99.5952C13.4394 86.2884 6.04577 88.7531 1.61013 82.3462C-2.82547 75.9392 2.10331 73.967 13.9314 73.4741C25.7598 72.9812 63.71 76.4317 93.281 92.6958C116.938 105.707 132.709 155.617 137.637 178.945C138.952 163.831 142.467 128.772 146.015 109.453C150.451 85.3029 167.209 60.6604 186.923 41.9321C206.637 23.2039 245.571 12.8538 267.257 12.3608C288.942 11.8679 308.656 5.95365 318.513 2.99654ZM304.846 266.27C291.54 264.299 266.404 284.999 251.126 297.813C235.847 310.627 201.841 345.127 186.562 356.462C174.34 365.531 147.955 376.012 136.291 380.119C107.935 390.103 76.622 404.498 70.4783 407.094C59.1427 413.501 57.4349 426.94 61.3777 434.826C67.7195 447.508 98.8346 446.654 136.291 445.175C173.747 443.697 198.208 434.825 244.719 404.268C289.114 375.1 314.703 334.777 326.531 304.22C338.359 273.664 318.153 268.241 304.846 266.27ZM290.471 236.311C283.571 234.339 249.072 218.075 215.065 232.861C181.059 247.646 144.588 275.739 124.381 282.639C104.174 289.539 69.6747 305.803 49.9607 333.403C30.2468 361.002 27.7827 370.366 28.7683 383.673C29.754 396.98 34.1889 406.838 39.6101 409.302C45.0315 411.766 45.343 406.601 52.2429 399.208C59.1429 391.816 69.9854 383.674 81.9959 378.252C92.6564 373.44 132.596 358.867 136.21 357.06C157.402 349.667 175.145 339.81 188.452 329.46C201.759 319.111 226.036 291.531 245.932 276.982C261.216 265.806 281.418 254.475 291.275 249.382C298.668 246.425 295.991 237.888 290.471 236.311ZM308.525 26.8881C301.25 28.7317 283.377 34.1236 270.088 40.9428C256.799 47.7619 246.357 55.6601 242.797 58.7573L254.799 29.2241C250.736 32.8748 241.783 41.9249 238.467 48.9194C235.15 55.9139 231.761 64.1366 230.481 67.3735L198.208 97.0708L206.917 59.6879C202.721 65.4863 193.947 78.7044 192.42 85.1879C190.892 91.6715 188.005 103.795 186.752 109.045C182.693 113.779 173.243 126.228 167.91 138.159C162.577 150.089 157.575 165.898 155.741 172.311C161.735 161.487 175.295 139.021 181.577 135.749C187.859 132.479 226.347 121.585 244.806 116.547C239.458 115.702 225.594 114.529 212.918 116.602C200.243 118.675 192.639 120.167 190.422 120.654C196.306 112.908 210.321 96.6874 219.315 93.767C228.309 90.8466 268.08 79.8101 286.842 74.6567C279.622 74.9609 262.121 75.9161 249.879 77.3032C237.636 78.6903 229.7 81.1911 227.263 82.268C235.109 76.0133 254.386 61.0902 268.731 51.4379C283.076 41.7858 301.238 31.0498 308.525 26.8881ZM47.3142 102.02C56.5142 108.756 76.2746 123.864 82.7996 129.126C98.0778 141.448 107.442 156.069 115.82 166.09C111.713 157.383 104.75 141.448 92.656 127.156C83.9819 116.904 59.7997 104.484 48.7927 99.5551L47.3142 102.02Z" fill="white"/>
</svg>
