<svg width="1283" height="494" viewBox="0 0 1283 494" fill="none" xmlns="http://www.w3.org/2000/svg">
<path d="M318.512 2.99724C328.369 0.0401365 335.763 -0.945842 338.227 1.02556C340.691 2.99715 334.284 12.3621 329.848 22.2189C325.413 32.0765 315.063 72.983 294.856 115.861C274.649 158.738 207.621 176.481 186.922 181.903C166.222 187.324 168.686 192.252 159.815 205.559C152.718 216.204 154.229 237.923 155.872 247.451C160.472 243.18 176.374 231.877 203.185 220.837C236.699 207.037 263.313 210.487 290.913 217.88C323.309 226.558 353.866 263.183 351.041 319.901C347.843 384.081 316.65 422.696 263.01 461.387C232.947 483.072 173.483 497.287 124.691 493.344C75.8989 489.401 33.9892 458.605 17.3806 417.485C5.42073 387.874 12.903 344.828 36.4704 319.901C60.0381 294.973 105.963 271.108 133.694 259.279C135.008 256.158 137.636 245.775 137.636 229.216C137.636 208.516 126.794 194.223 119.894 184.366C112.994 174.509 89.8304 172.045 64.6951 159.231C39.5597 146.417 26.2525 112.903 19.8454 99.5959C13.4384 86.289 6.04573 88.7529 1.61009 82.3459C-2.82535 75.939 2.10307 73.9676 13.9314 73.4748C25.7601 72.982 63.7092 76.4325 93.28 92.6965C116.937 105.708 132.708 155.617 137.636 178.945C138.951 163.831 142.467 128.773 146.015 109.453C150.451 85.3037 167.208 60.6611 186.922 41.9328C206.636 23.2045 245.571 12.8543 267.257 12.3615C288.942 11.8686 308.655 5.95435 318.512 2.99724ZM304.845 266.271C291.538 264.299 266.403 285 251.125 297.814C235.846 310.628 201.84 345.126 186.561 356.462C174.339 365.53 147.955 376.012 136.291 380.119C107.934 390.104 76.6203 404.499 70.4773 407.095C59.1419 413.502 57.4342 426.94 61.3767 434.825C67.7181 447.508 98.8341 446.655 136.291 445.176C173.747 443.697 198.208 434.825 244.718 404.269C289.114 375.101 314.703 334.777 326.531 304.22C338.359 273.664 318.152 268.242 304.845 266.271ZM290.47 236.312C283.57 234.34 249.07 218.076 215.064 232.861C181.058 247.647 144.587 275.74 124.381 282.64C104.174 289.54 69.6737 305.804 49.9597 333.403C30.2458 361.003 27.7816 370.367 28.7673 383.674C29.753 396.981 34.1887 406.838 39.6101 409.302C45.0314 411.766 45.342 406.602 52.2419 399.209C59.1418 391.816 69.9844 383.674 81.9949 378.253C92.6554 373.441 132.594 358.867 136.209 357.06C157.401 349.667 175.144 339.81 188.451 329.46C201.758 319.11 226.036 291.532 245.932 276.983C261.215 265.807 281.417 254.476 291.274 249.383C298.667 246.426 295.99 237.889 290.47 236.312ZM308.524 26.8888C301.249 28.7324 283.376 34.1242 270.087 40.9435C256.797 47.7628 246.355 55.661 242.796 58.758L254.799 29.2248C250.736 32.8754 241.783 41.9255 238.467 48.9201C235.15 55.9147 231.76 64.1373 230.48 67.3742L198.208 97.0715L206.916 59.6886C202.72 65.4871 193.946 78.7051 192.419 85.1886C190.892 91.672 188.004 103.794 186.751 109.045C182.692 113.779 173.242 126.229 167.909 138.159C162.576 150.09 157.574 165.898 155.74 172.311C161.734 161.487 175.294 139.022 181.576 135.75C187.858 132.479 226.347 121.586 244.806 116.548C239.458 115.702 225.593 114.529 212.917 116.603C200.241 118.676 192.638 120.168 190.421 120.654C196.304 112.909 210.32 96.6884 219.314 93.7677C228.308 90.8473 268.079 79.8108 286.841 74.6574C279.621 74.9616 262.12 75.9167 249.878 77.3039C237.635 78.691 229.7 81.1918 227.263 82.2687C235.109 76.014 254.385 61.0909 268.73 51.4386C283.075 41.7865 301.237 31.0505 308.524 26.8888ZM47.3132 102.021C56.5131 108.756 76.2735 123.865 82.7986 129.127C98.0768 141.448 107.441 156.07 115.819 166.091C111.712 157.384 104.75 141.448 92.656 127.155C83.9818 116.904 59.7987 104.484 48.7917 99.5558L47.3132 102.021Z" fill="white"/>
<path d="M499.23 311.345C485.829 304.035 481.159 316.421 455.371 316.421C415.37 316.421 394.253 283.933 394.253 243.932C394.253 203.931 415.37 171.443 455.371 171.443C464.712 171.443 472.834 173.27 479.738 176.519C486.235 179.768 493.545 176.722 497.2 173.473L497.809 172.864H501.058L507.962 214.084H506.54C499.23 193.372 485.626 175.707 460.448 175.707C431.411 175.707 419.634 205.759 419.634 243.932C419.634 282.106 431.411 312.157 463.087 312.157C478.722 312.157 481.565 302.614 481.565 282.106V239.668H475.067C468.367 239.668 456.59 240.886 456.59 255.303H454.559V237.638H505.931V315L499.23 311.345ZM545.853 213.271C552.35 213.271 556.005 216.926 556.005 223.424V239.262C571.031 197.637 622.2 202.51 622.2 248.602H597.834C597.834 215.708 556.005 208.601 556.005 264.643V294.492C556.005 301.193 557.224 312.969 571.64 312.969V315H516.004V312.969C530.421 312.969 531.639 301.193 531.639 294.492V233.78C531.639 227.079 530.421 215.302 516.004 215.302V213.271H545.853ZM651.636 261.598V264.44C651.636 272.968 652.448 281.09 654.073 287.994C655.9 265.659 680.875 256.318 697.119 254.694C695.292 232.358 690.622 215.708 675.393 215.708C657.728 215.708 651.636 235.81 651.636 261.598ZM702.602 258.349C684.936 258.349 651.23 268.907 659.758 301.396C664.631 308.705 671.738 312.969 681.891 312.969C699.353 312.969 711.536 300.177 716.206 282.106H720.673C714.582 302.411 703.211 317.031 677.627 317.031C645.138 317.031 626.255 293.477 626.255 264.44V261.598C626.255 233.577 644.123 211.647 675.393 211.647C704.023 211.647 722.298 231.952 722.298 258.349H702.602ZM802.739 258.349C785.074 258.349 751.367 268.907 759.896 301.396C764.769 308.705 771.876 312.969 782.028 312.969C795.429 312.969 806.597 301.396 816.344 289.416C824.466 279.669 834.009 258.552 834.415 232.967C834.212 226.267 832.588 215.505 818.78 215.505V213.475H848.629C855.126 213.475 858.781 217.129 858.781 223.627V237.231L865.076 228.703L866.7 226.673C872.995 218.754 880.914 211.647 892.691 211.647C908.732 210.023 923.758 221.19 924.976 245.557V294.492C924.976 301.193 926.194 312.969 940.611 312.969V315H884.975V312.969C899.392 312.969 900.61 301.193 900.61 294.492V248.602C900.61 223.627 881.929 216.52 866.294 234.186L863.045 238.45L861.624 240.48L859.391 243.12L827.308 282.106C814.719 298.35 802.333 317.031 777.764 317.031C745.276 317.031 726.392 293.477 726.392 264.44V261.598C726.392 233.577 744.261 211.647 775.53 211.647C804.161 211.647 822.435 231.952 822.435 258.349H802.739ZM818.78 315V312.969C833.197 312.969 834.415 301.193 834.415 294.492V279.06L858.781 249.211V294.492C858.781 301.193 860 312.969 874.416 312.969V315H818.78ZM751.773 261.598V264.44C751.773 272.968 752.586 281.09 754.21 287.994C756.038 265.659 781.013 256.318 797.257 254.694C795.429 232.358 790.759 215.708 775.53 215.708C757.865 215.708 751.773 235.81 751.773 261.598ZM1079.74 172.864C1086.24 172.864 1089.89 176.519 1089.89 183.017V266.065L1126.44 229.312C1131.72 223.424 1137.81 215.505 1126.85 215.505V213.475H1161.16V215.505C1149.79 215.505 1138.02 224.236 1131.32 230.125L1115.88 245.76L1146.75 294.492C1150.61 300.583 1159.95 312.969 1174.36 312.969V315H1119.34V312.969C1126.44 312.969 1127.05 309.924 1125.43 306.066L1119.54 297.335L1117.71 294.492L1097.81 263.831L1089.89 271.75V294.492C1089.89 301.193 1091.11 312.969 1105.53 312.969V315H1049.89V312.969C1064.31 312.969 1065.53 301.193 1065.53 294.492V251.445C1065.53 242.308 1058.01 253.476 1053.55 259.77C1040.75 278.248 1021.87 291.852 1003.6 307.487C987.149 323.325 944.712 320.888 944.712 294.492C944.712 256.318 1004 279.466 1004 228.906C1002.18 221.8 998.317 216.317 990.601 216.317C976.185 216.317 962.377 233.78 955.067 254.491H953.646L959.128 213.271H962.58C966.235 216.52 973.139 219.566 979.839 216.723C984.713 213.678 989.586 212.053 997.505 212.053C1025.32 212.053 1029.79 230.734 1030.2 245.557V264.237C1030.2 271.344 1034.26 274.999 1039.54 270.329C1054.36 254.694 1065.12 236.216 1065.53 207.992V193.372C1065.53 186.672 1064.31 174.895 1049.89 174.895V172.864H1079.74ZM1015.98 315C1010.91 315 1007.45 313.782 1006.24 309.518L1030.2 289.009V294.492C1030.2 301.193 1031.41 312.969 1045.83 312.969V315H1015.98ZM969.078 294.492C969.281 317.437 992.429 312.766 1003.6 302.005L1005.83 300.177V247.993V245.557C997.505 271.344 968.875 261.598 969.078 294.492ZM1239.62 245.557C1231.29 271.344 1202.66 261.598 1202.86 294.492C1203.07 321.498 1239.62 312.36 1239.62 292.867V247.993V245.557ZM1249.77 315C1243.27 315 1239.62 311.345 1239.62 304.847C1225.4 323.528 1178.5 322.31 1178.5 294.492C1178.5 256.318 1237.79 279.466 1237.79 228.906C1235.96 221.8 1232.1 216.317 1224.39 216.317C1209.97 216.317 1196.16 233.78 1188.85 254.491H1187.43L1192.91 213.271H1196.37C1200.02 216.52 1206.92 219.566 1213.63 216.723C1218.5 213.678 1223.37 212.053 1231.29 212.053C1259.11 212.053 1263.58 230.734 1263.98 245.557V294.492C1263.98 301.193 1265.2 312.969 1279.62 312.969V315H1249.77Z" fill="white"/>
<path d="M430.477 392.369C428.02 392.369 425.748 391.969 423.66 391.171C421.602 390.342 419.806 389.19 418.27 387.716C416.766 386.211 415.583 384.461 414.723 382.465C413.864 380.469 413.434 378.273 413.434 375.878C413.434 373.482 413.864 371.287 414.723 369.291C415.583 367.294 416.781 365.559 418.316 364.085C419.852 362.581 421.648 361.429 423.706 360.631C425.794 359.801 428.067 359.387 430.523 359.387C433.011 359.387 435.299 359.817 437.387 360.677C439.506 361.506 441.302 362.749 442.776 364.408L439.782 367.31C438.554 366.02 437.172 365.068 435.636 364.454C434.101 363.809 432.458 363.486 430.708 363.486C428.896 363.486 427.207 363.794 425.641 364.408C424.105 365.022 422.769 365.882 421.633 366.987C420.497 368.093 419.606 369.413 418.961 370.949C418.347 372.454 418.04 374.097 418.04 375.878C418.04 377.659 418.347 379.317 418.961 380.853C419.606 382.357 420.497 383.662 421.633 384.768C422.769 385.874 424.105 386.733 425.641 387.348C427.207 387.962 428.896 388.269 430.708 388.269C432.458 388.269 434.101 387.962 435.636 387.348C437.172 386.703 438.554 385.72 439.782 384.399L442.776 387.301C441.302 388.96 439.506 390.219 437.387 391.079C435.299 391.939 432.995 392.369 430.477 392.369ZM461.834 392.369C459.378 392.369 457.09 391.954 454.971 391.125C452.883 390.296 451.071 389.144 449.535 387.67C448 386.165 446.802 384.415 445.942 382.419C445.083 380.423 444.653 378.242 444.653 375.878C444.653 373.513 445.083 371.333 445.942 369.337C446.802 367.34 448 365.605 449.535 364.131C451.071 362.627 452.883 361.46 454.971 360.631C457.059 359.801 459.347 359.387 461.834 359.387C464.291 359.387 466.548 359.801 468.606 360.631C470.694 361.429 472.506 362.581 474.041 364.085C475.608 365.559 476.805 367.294 477.634 369.291C478.494 371.287 478.924 373.482 478.924 375.878C478.924 378.273 478.494 380.469 477.634 382.465C476.805 384.461 475.608 386.211 474.041 387.716C472.506 389.19 470.694 390.342 468.606 391.171C466.548 391.969 464.291 392.369 461.834 392.369ZM461.834 388.269C463.616 388.269 465.259 387.962 466.763 387.348C468.299 386.733 469.619 385.874 470.725 384.768C471.861 383.632 472.736 382.311 473.35 380.806C473.995 379.302 474.318 377.659 474.318 375.878C474.318 374.097 473.995 372.454 473.35 370.949C472.736 369.444 471.861 368.139 470.725 367.033C469.619 365.897 468.299 365.022 466.763 364.408C465.259 363.794 463.616 363.486 461.834 363.486C460.023 363.486 458.349 363.794 456.813 364.408C455.309 365.022 453.988 365.897 452.852 367.033C451.716 368.139 450.825 369.444 450.18 370.949C449.566 372.454 449.259 374.097 449.259 375.878C449.259 377.659 449.566 379.302 450.18 380.806C450.825 382.311 451.716 383.632 452.852 384.768C453.988 385.874 455.309 386.733 456.813 387.348C458.349 387.962 460.023 388.269 461.834 388.269ZM485.965 392V359.755H508.72V363.763H490.571V392H485.965ZM490.11 378.964V375.002H506.74V378.964H490.11ZM515.204 392V359.755H537.96V363.763H519.811V392H515.204ZM519.35 378.964V375.002H535.979V378.964H519.35ZM544.444 392V359.755H567.2V363.763H549.051V387.992H567.845V392H544.444ZM548.636 377.582V373.667H565.219V377.582H548.636ZM575.303 392V359.755H598.059V363.763H579.91V387.992H598.704V392H575.303ZM579.495 377.582V373.667H596.078V377.582H579.495ZM618.533 392V359.755H631.109C635.285 359.755 638.571 360.753 640.966 362.749C643.362 364.715 644.559 367.463 644.559 370.995C644.559 373.329 644.022 375.34 642.947 377.029C641.872 378.688 640.337 379.962 638.341 380.853C636.345 381.743 633.934 382.188 631.109 382.188H621.067L623.14 380.069V392H618.533ZM640.091 392L631.892 380.3H636.821L645.112 392H640.091ZM623.14 380.53L621.067 378.273H630.97C633.919 378.273 636.145 377.643 637.65 376.384C639.185 375.095 639.953 373.298 639.953 370.995C639.953 368.692 639.185 366.911 637.65 365.651C636.145 364.392 633.919 363.763 630.97 363.763H621.067L623.14 361.46V380.53ZM647.119 392L661.721 359.755H666.281L680.93 392H676.093L663.057 362.335H664.899L651.863 392H647.119ZM653.337 383.939L654.581 380.254H672.73L674.066 383.939H653.337ZM691.446 392L680.668 359.755H685.412L695.316 389.513H692.921L703.193 359.755H707.431L717.473 389.513H715.169L725.211 359.755H729.587L718.808 392H713.972L704.575 364.408H705.818L696.375 392H691.446ZM748.268 392V359.755H762.732C766.448 359.755 769.303 360.508 771.3 362.012C773.296 363.486 774.294 365.513 774.294 368.093C774.294 369.843 773.895 371.317 773.096 372.515C772.328 373.713 771.284 374.634 769.964 375.279C768.643 375.924 767.215 376.246 765.68 376.246L766.509 374.864C768.352 374.864 769.979 375.187 771.392 375.832C772.804 376.476 773.925 377.428 774.754 378.688C775.584 379.916 775.998 381.451 775.998 383.294C775.998 386.058 774.954 388.207 772.866 389.743C770.808 391.248 767.737 392 763.653 392H748.268ZM752.874 388.269H763.469C766.018 388.269 767.968 387.839 769.319 386.979C770.67 386.119 771.346 384.768 771.346 382.925C771.346 381.052 770.67 379.686 769.319 378.826C767.968 377.966 766.018 377.536 763.469 377.536H752.459V373.805H762.317C764.651 373.805 766.463 373.375 767.753 372.515C769.042 371.655 769.687 370.365 769.687 368.646C769.687 366.926 769.042 365.636 767.753 364.776C766.463 363.916 764.651 363.486 762.317 363.486H752.874V388.269ZM783.13 392V359.755H805.886V363.763H787.737V387.992H806.531V392H783.13ZM787.322 377.582V373.667H803.905V377.582H787.322ZM809.107 392L823.709 359.755H828.269L842.918 392H838.081L825.045 362.335H826.888L813.851 392H809.107ZM815.325 383.939L816.569 380.254H834.718L836.054 383.939H815.325ZM847.728 392V359.755H851.505L872.833 386.242H870.852V359.755H875.458V392H871.681L850.353 365.513H852.334V392H847.728ZM906.877 392.369C904.421 392.369 902.071 392 899.83 391.263C897.588 390.495 895.822 389.513 894.532 388.315L896.237 384.722C897.465 385.797 899.031 386.687 900.935 387.394C902.839 388.1 904.82 388.453 906.877 388.453C908.751 388.453 910.271 388.238 911.438 387.808C912.605 387.378 913.465 386.795 914.017 386.058C914.57 385.29 914.846 384.43 914.846 383.478C914.846 382.373 914.478 381.482 913.741 380.806C913.035 380.131 912.098 379.593 910.931 379.194C909.795 378.764 908.536 378.396 907.154 378.089C905.772 377.782 904.375 377.428 902.962 377.029C901.58 376.599 900.306 376.062 899.139 375.417C898.002 374.772 897.081 373.912 896.375 372.837C895.669 371.732 895.315 370.319 895.315 368.6C895.315 366.941 895.745 365.421 896.605 364.039C897.496 362.627 898.847 361.506 900.659 360.677C902.501 359.817 904.835 359.387 907.66 359.387C909.534 359.387 911.392 359.632 913.234 360.124C915.077 360.615 916.674 361.321 918.025 362.243L916.505 365.928C915.123 365.007 913.664 364.346 912.129 363.947C910.593 363.517 909.104 363.302 907.66 363.302C905.849 363.302 904.359 363.533 903.192 363.993C902.025 364.454 901.165 365.068 900.613 365.836C900.091 366.603 899.83 367.463 899.83 368.415C899.83 369.552 900.183 370.457 900.889 371.133C901.626 371.809 902.563 372.346 903.699 372.745C904.866 373.145 906.14 373.513 907.522 373.851C908.904 374.158 910.286 374.511 911.668 374.91C913.081 375.31 914.355 375.832 915.491 376.476C916.658 377.121 917.595 377.981 918.301 379.056C919.008 380.131 919.361 381.513 919.361 383.202C919.361 384.829 918.915 386.35 918.025 387.762C917.134 389.144 915.752 390.265 913.879 391.125C912.037 391.954 909.703 392.369 906.877 392.369ZM939.449 392.369C935.211 392.369 931.879 391.155 929.453 388.729C927.027 386.303 925.814 382.757 925.814 378.089V359.755H930.42V377.904C930.42 381.497 931.203 384.123 932.77 385.781C934.366 387.44 936.608 388.269 939.495 388.269C942.412 388.269 944.654 387.44 946.22 385.781C947.817 384.123 948.616 381.497 948.616 377.904V359.755H953.084V378.089C953.084 382.757 951.871 386.303 949.445 388.729C947.049 391.155 943.717 392.369 939.449 392.369ZM962.527 392V359.755H975.103C977.928 359.755 980.339 360.201 982.335 361.091C984.331 361.982 985.867 363.272 986.941 364.961C988.016 366.65 988.554 368.661 988.554 370.995C988.554 373.329 988.016 375.34 986.941 377.029C985.867 378.688 984.331 379.977 982.335 380.899C980.339 381.789 977.928 382.234 975.103 382.234H965.061L967.134 380.069V392H962.527ZM967.134 380.53L965.061 378.227H974.965C977.913 378.227 980.139 377.597 981.644 376.338C983.179 375.079 983.947 373.298 983.947 370.995C983.947 368.692 983.179 366.911 981.644 365.651C980.139 364.392 977.913 363.763 974.965 363.763H965.061L967.134 361.46V380.53ZM995.321 392V359.755H1007.9C1010.72 359.755 1013.13 360.201 1015.13 361.091C1017.12 361.982 1018.66 363.272 1019.73 364.961C1020.81 366.65 1021.35 368.661 1021.35 370.995C1021.35 373.329 1020.81 375.34 1019.73 377.029C1018.66 378.688 1017.12 379.977 1015.13 380.899C1013.13 381.789 1010.72 382.234 1007.9 382.234H997.855L999.927 380.069V392H995.321ZM999.927 380.53L997.855 378.227H1007.76C1010.71 378.227 1012.93 377.597 1014.44 376.338C1015.97 375.079 1016.74 373.298 1016.74 370.995C1016.74 368.692 1015.97 366.911 1014.44 365.651C1012.93 364.392 1010.71 363.763 1007.76 363.763H997.855L999.927 361.46V380.53ZM1028.11 392V359.755H1032.72V387.992H1050.18V392H1028.11ZM1055.46 392V359.755H1060.07V392H1055.46ZM1069.72 392V359.755H1092.48V363.763H1074.33V387.992H1093.13V392H1069.72ZM1073.92 377.582V373.667H1090.5V377.582H1073.92ZM1100.58 392V359.755H1113.16C1117.34 359.755 1120.62 360.753 1123.02 362.749C1125.41 364.715 1126.61 367.463 1126.61 370.995C1126.61 373.329 1126.07 375.34 1125 377.029C1123.92 378.688 1122.39 379.962 1120.39 380.853C1118.4 381.743 1115.98 382.188 1113.16 382.188H1103.12L1105.19 380.069V392H1100.58ZM1122.14 392L1113.94 380.3H1118.87L1127.16 392H1122.14ZM1105.19 380.53L1103.12 378.273H1113.02C1115.97 378.273 1118.2 377.643 1119.7 376.384C1121.24 375.095 1122 373.298 1122 370.995C1122 368.692 1121.24 366.911 1119.7 365.651C1118.2 364.392 1115.97 363.763 1113.02 363.763H1103.12L1105.19 361.46V380.53Z" fill="white"/>
<path d="M419.26 143L411.46 122.016H415.063L421.991 141.02H420.289L427.495 122.016H430.702L437.749 141.02H436.086L443.173 122.016H446.578L438.739 143H435.096L428.484 125.659H429.593L422.902 143H419.26ZM454.56 143L446.76 122.016H450.363L457.291 141.02H455.589L462.795 122.016H466.001L473.049 141.02H471.386L478.473 122.016H481.878L474.039 143H470.396L463.784 125.659H464.893L458.202 143H454.56ZM489.859 143L482.06 122.016H485.663L492.591 141.02H490.889L498.094 122.016H501.301L508.349 141.02H506.686L513.773 122.016H517.178L509.338 143H505.696L499.084 125.659H500.193L493.502 143H489.859ZM520.63 143.238C519.891 143.238 519.258 142.987 518.73 142.485C518.202 141.957 517.938 141.298 517.938 140.506C517.938 139.714 518.202 139.067 518.73 138.566C519.258 138.064 519.891 137.814 520.63 137.814C521.343 137.814 521.95 138.064 522.452 138.566C522.979 139.067 523.243 139.714 523.243 140.506C523.243 141.298 522.979 141.957 522.452 142.485C521.95 142.987 521.343 143.238 520.63 143.238ZM537.411 150.918C535.484 150.918 533.61 150.641 531.789 150.087C529.994 149.559 528.529 148.794 527.394 147.791L529.216 144.861C530.192 145.705 531.393 146.365 532.818 146.84C534.244 147.342 535.735 147.593 537.292 147.593C539.773 147.593 541.595 147.012 542.756 145.851C543.917 144.689 544.498 142.921 544.498 140.545V136.111L544.894 131.954L544.696 127.757V122.016H548.299V140.149C548.299 143.845 547.375 146.563 545.527 148.305C543.68 150.047 540.974 150.918 537.411 150.918ZM536.936 142.129C534.904 142.129 533.082 141.707 531.472 140.862C529.889 139.991 528.622 138.79 527.671 137.259C526.748 135.728 526.286 133.96 526.286 131.954C526.286 129.922 526.748 128.153 527.671 126.649C528.622 125.118 529.889 123.93 531.472 123.085C533.082 122.241 534.904 121.819 536.936 121.819C538.731 121.819 540.367 122.188 541.845 122.927C543.323 123.64 544.498 124.748 545.369 126.253C546.266 127.757 546.715 129.658 546.715 131.954C546.715 134.224 546.266 136.111 545.369 137.616C544.498 139.12 543.323 140.255 541.845 141.02C540.367 141.759 538.731 142.129 536.936 142.129ZM537.371 138.803C538.77 138.803 540.011 138.513 541.093 137.932C542.175 137.352 543.02 136.547 543.627 135.517C544.26 134.488 544.577 133.3 544.577 131.954C544.577 130.608 544.26 129.42 543.627 128.391C543.02 127.361 542.175 126.57 541.093 126.015C540.011 125.435 538.77 125.144 537.371 125.144C535.973 125.144 534.719 125.435 533.61 126.015C532.528 126.57 531.67 127.361 531.037 128.391C530.43 129.42 530.126 130.608 530.126 131.954C530.126 133.3 530.43 134.488 531.037 135.517C531.67 136.547 532.528 137.352 533.61 137.932C534.719 138.513 535.973 138.803 537.371 138.803ZM555.561 143V122.016H559.203V127.718L558.847 126.292C559.428 124.841 560.404 123.732 561.777 122.967C563.149 122.201 564.839 121.819 566.845 121.819V125.501C566.686 125.474 566.528 125.461 566.369 125.461C566.237 125.461 566.106 125.461 565.974 125.461C563.941 125.461 562.331 126.068 561.143 127.282C559.956 128.496 559.362 130.252 559.362 132.548V143H555.561ZM580.679 143.238C578.436 143.238 576.456 142.776 574.741 141.852C573.051 140.928 571.732 139.661 570.781 138.051C569.858 136.441 569.396 134.593 569.396 132.508C569.396 130.423 569.844 128.575 570.742 126.965C571.666 125.355 572.919 124.102 574.503 123.204C576.113 122.28 577.921 121.819 579.927 121.819C581.959 121.819 583.754 122.267 585.312 123.165C586.869 124.062 588.083 125.329 588.954 126.965C589.851 128.575 590.3 130.463 590.3 132.627C590.3 132.785 590.287 132.97 590.26 133.181C590.26 133.392 590.247 133.59 590.221 133.775H572.365V131.043H588.241L586.697 131.994C586.724 130.647 586.447 129.446 585.866 128.391C585.285 127.335 584.48 126.517 583.451 125.936C582.448 125.329 581.273 125.025 579.927 125.025C578.607 125.025 577.433 125.329 576.403 125.936C575.374 126.517 574.569 127.348 573.988 128.43C573.408 129.486 573.117 130.7 573.117 132.073V132.706C573.117 134.105 573.434 135.359 574.068 136.467C574.727 137.55 575.638 138.394 576.799 139.001C577.961 139.608 579.294 139.912 580.798 139.912C582.039 139.912 583.16 139.701 584.163 139.278C585.193 138.856 586.09 138.223 586.856 137.378L588.954 139.833C588.004 140.941 586.816 141.786 585.391 142.367C583.992 142.947 582.421 143.238 580.679 143.238ZM604.921 143.238C602.678 143.238 600.698 142.776 598.983 141.852C597.293 140.928 595.974 139.661 595.024 138.051C594.1 136.441 593.638 134.593 593.638 132.508C593.638 130.423 594.087 128.575 594.984 126.965C595.908 125.355 597.161 124.102 598.745 123.204C600.355 122.28 602.163 121.819 604.169 121.819C606.202 121.819 607.996 122.267 609.554 123.165C611.111 124.062 612.325 125.329 613.196 126.965C614.093 128.575 614.542 130.463 614.542 132.627C614.542 132.785 614.529 132.97 614.503 133.181C614.503 133.392 614.489 133.59 614.463 133.775H596.607V131.043H612.483L610.939 131.994C610.966 130.647 610.689 129.446 610.108 128.391C609.527 127.335 608.722 126.517 607.693 125.936C606.69 125.329 605.515 125.025 604.169 125.025C602.849 125.025 601.675 125.329 600.646 125.936C599.616 126.517 598.811 127.348 598.23 128.43C597.65 129.486 597.359 130.7 597.359 132.073V132.706C597.359 134.105 597.676 135.359 598.31 136.467C598.969 137.55 599.88 138.394 601.041 139.001C602.203 139.608 603.536 139.912 605.04 139.912C606.281 139.912 607.402 139.701 608.405 139.278C609.435 138.856 610.332 138.223 611.098 137.378L613.196 139.833C612.246 140.941 611.058 141.786 609.633 142.367C608.234 142.947 606.663 143.238 604.921 143.238ZM619.82 143V122.016H623.462V127.678L622.868 126.174C623.555 124.801 624.61 123.732 626.036 122.967C627.461 122.201 629.124 121.819 631.024 121.819C632.74 121.819 634.244 122.148 635.538 122.808C636.857 123.468 637.887 124.471 638.626 125.817C639.365 127.163 639.734 128.866 639.734 130.925V143H635.934V131.36C635.934 129.328 635.432 127.797 634.429 126.767C633.453 125.738 632.067 125.223 630.272 125.223C628.926 125.223 627.751 125.487 626.748 126.015C625.745 126.543 624.967 127.322 624.413 128.351C623.885 129.381 623.621 130.661 623.621 132.192V143H619.82ZM659.794 143V138.566L659.596 137.734V130.172C659.596 128.562 659.121 127.322 658.171 126.451C657.247 125.553 655.848 125.105 653.974 125.105C652.734 125.105 651.519 125.316 650.332 125.738C649.144 126.134 648.141 126.675 647.323 127.361L645.739 124.511C646.821 123.64 648.115 122.98 649.619 122.531C651.15 122.056 652.747 121.819 654.41 121.819C657.287 121.819 659.504 122.518 661.061 123.917C662.618 125.316 663.397 127.454 663.397 130.331V143H659.794ZM652.905 143.238C651.348 143.238 649.975 142.974 648.788 142.446C647.626 141.918 646.729 141.192 646.095 140.268C645.462 139.318 645.145 138.249 645.145 137.061C645.145 135.926 645.409 134.897 645.937 133.973C646.491 133.049 647.376 132.31 648.59 131.756C649.83 131.202 651.493 130.925 653.578 130.925H660.23V133.656H653.737C651.836 133.656 650.556 133.973 649.896 134.607C649.236 135.24 648.906 136.005 648.906 136.903C648.906 137.932 649.316 138.764 650.134 139.397C650.952 140.004 652.087 140.308 653.539 140.308C654.964 140.308 656.204 139.991 657.26 139.358C658.342 138.724 659.121 137.8 659.596 136.586L660.348 139.199C659.847 140.44 658.963 141.43 657.696 142.169C656.429 142.881 654.832 143.238 652.905 143.238ZM673.519 137.932L673.598 133.063L685.673 122.016H690.266L681.002 131.123L678.943 132.865L673.519 137.932ZM670.431 143V113.623H674.231V143H670.431ZM686.465 143L678.23 132.785L680.685 129.737L691.137 143H686.465ZM707.428 143V138.566L707.23 137.734V130.172C707.23 128.562 706.755 127.322 705.804 126.451C704.881 125.553 703.482 125.105 701.608 125.105C700.367 125.105 699.153 125.316 697.965 125.738C696.778 126.134 695.775 126.675 694.956 127.361L693.373 124.511C694.455 123.64 695.748 122.98 697.253 122.531C698.784 122.056 700.38 121.819 702.043 121.819C704.92 121.819 707.137 122.518 708.695 123.917C710.252 125.316 711.031 127.454 711.031 130.331V143H707.428ZM700.539 143.238C698.981 143.238 697.609 142.974 696.421 142.446C695.26 141.918 694.362 141.192 693.729 140.268C693.096 139.318 692.779 138.249 692.779 137.061C692.779 135.926 693.043 134.897 693.571 133.973C694.125 133.049 695.009 132.31 696.223 131.756C697.464 131.202 699.127 130.925 701.212 130.925H707.863V133.656H701.37C699.47 133.656 698.19 133.973 697.53 134.607C696.87 135.24 696.54 136.005 696.54 136.903C696.54 137.932 696.949 138.764 697.767 139.397C698.586 140.004 699.721 140.308 701.172 140.308C702.598 140.308 703.838 139.991 704.894 139.358C705.976 138.724 706.755 137.8 707.23 136.586L707.982 139.199C707.48 140.44 706.596 141.43 705.329 142.169C704.062 142.881 702.466 143.238 700.539 143.238ZM718.975 143.238C718.236 143.238 717.602 142.987 717.074 142.485C716.547 141.957 716.283 141.298 716.283 140.506C716.283 139.714 716.547 139.067 717.074 138.566C717.602 138.064 718.236 137.814 718.975 137.814C719.687 137.814 720.295 138.064 720.796 138.566C721.324 139.067 721.588 139.714 721.588 140.506C721.588 141.298 721.324 141.957 720.796 142.485C720.295 142.987 719.687 143.238 718.975 143.238ZM735.716 143.238C733.578 143.238 731.664 142.776 729.975 141.852C728.312 140.928 727.006 139.661 726.055 138.051C725.105 136.441 724.63 134.593 724.63 132.508C724.63 130.423 725.105 128.575 726.055 126.965C727.006 125.355 728.312 124.102 729.975 123.204C731.664 122.28 733.578 121.819 735.716 121.819C737.616 121.819 739.305 122.201 740.784 122.967C742.288 123.706 743.449 124.814 744.268 126.292L741.377 128.153C740.691 127.124 739.847 126.372 738.844 125.896C737.867 125.395 736.811 125.144 735.676 125.144C734.304 125.144 733.076 125.448 731.994 126.055C730.912 126.662 730.054 127.52 729.421 128.628C728.787 129.71 728.471 131.004 728.471 132.508C728.471 134.013 728.787 135.319 729.421 136.428C730.054 137.536 730.912 138.394 731.994 139.001C733.076 139.608 734.304 139.912 735.676 139.912C736.811 139.912 737.867 139.674 738.844 139.199C739.847 138.698 740.691 137.932 741.377 136.903L744.268 138.724C743.449 140.176 742.288 141.298 740.784 142.089C739.305 142.855 737.616 143.238 735.716 143.238ZM757.866 143.238C755.755 143.238 753.881 142.776 752.244 141.852C750.608 140.928 749.315 139.661 748.364 138.051C747.414 136.415 746.939 134.567 746.939 132.508C746.939 130.423 747.414 128.575 748.364 126.965C749.315 125.355 750.608 124.102 752.244 123.204C753.881 122.28 755.755 121.819 757.866 121.819C759.952 121.819 761.812 122.28 763.449 123.204C765.112 124.102 766.405 125.355 767.329 126.965C768.279 128.549 768.754 130.397 768.754 132.508C768.754 134.593 768.279 136.441 767.329 138.051C766.405 139.661 765.112 140.928 763.449 141.852C761.812 142.776 759.952 143.238 757.866 143.238ZM757.866 139.912C759.212 139.912 760.413 139.608 761.469 139.001C762.551 138.394 763.396 137.536 764.003 136.428C764.61 135.293 764.914 133.986 764.914 132.508C764.914 131.004 764.61 129.71 764.003 128.628C763.396 127.52 762.551 126.662 761.469 126.055C760.413 125.448 759.212 125.144 757.866 125.144C756.52 125.144 755.319 125.448 754.264 126.055C753.208 126.662 752.363 127.52 751.73 128.628C751.096 129.71 750.779 131.004 750.779 132.508C750.779 133.986 751.096 135.293 751.73 136.428C752.363 137.536 753.208 138.394 754.264 139.001C755.319 139.608 756.52 139.912 757.866 139.912ZM774.457 143.238C773.718 143.238 773.085 142.987 772.557 142.485C772.029 141.957 771.765 141.298 771.765 140.506C771.765 139.714 772.029 139.067 772.557 138.566C773.085 138.064 773.718 137.814 774.457 137.814C775.17 137.814 775.777 138.064 776.278 138.566C776.806 139.067 777.07 139.714 777.07 140.506C777.07 141.298 776.806 141.957 776.278 142.485C775.777 142.987 775.17 143.238 774.457 143.238ZM782.516 143V122.016H786.317V143H782.516ZM784.417 117.978C783.678 117.978 783.058 117.741 782.556 117.265C782.081 116.79 781.843 116.21 781.843 115.523C781.843 114.811 782.081 114.217 782.556 113.742C783.058 113.267 783.678 113.029 784.417 113.029C785.156 113.029 785.763 113.267 786.238 113.742C786.74 114.191 786.99 114.758 786.99 115.444C786.99 116.157 786.753 116.764 786.278 117.265C785.803 117.741 785.182 117.978 784.417 117.978ZM802.245 143.238C800.212 143.238 798.391 142.789 796.781 141.891C795.197 140.994 793.944 139.74 793.02 138.13C792.096 136.52 791.634 134.646 791.634 132.508C791.634 130.37 792.096 128.509 793.02 126.926C793.944 125.316 795.197 124.062 796.781 123.165C798.391 122.267 800.212 121.819 802.245 121.819C804.013 121.819 805.61 122.214 807.035 123.006C808.461 123.798 809.596 124.986 810.44 126.57C811.311 128.153 811.747 130.133 811.747 132.508C811.747 134.884 811.324 136.863 810.48 138.447C809.662 140.031 808.54 141.232 807.115 142.05C805.689 142.842 804.066 143.238 802.245 143.238ZM802.562 139.912C803.881 139.912 805.069 139.608 806.125 139.001C807.207 138.394 808.052 137.536 808.659 136.428C809.292 135.293 809.609 133.986 809.609 132.508C809.609 131.004 809.292 129.71 808.659 128.628C808.052 127.52 807.207 126.662 806.125 126.055C805.069 125.448 803.881 125.144 802.562 125.144C801.215 125.144 800.014 125.448 798.959 126.055C797.903 126.662 797.058 127.52 796.425 128.628C795.791 129.71 795.475 131.004 795.475 132.508C795.475 133.986 795.791 135.293 796.425 136.428C797.058 137.536 797.903 138.394 798.959 139.001C800.014 139.608 801.215 139.912 802.562 139.912ZM809.728 143V137.338L809.965 132.469L809.569 127.599V113.623H813.37V143H809.728Z" fill="white"/>
</svg>
